<?xml version="1.0" encoding="utf-8" ?>
<svg baseProfile="full" height="200mm" version="1.1" viewBox="0,0,200,200" width="200mm" xmlns="http://www.w3.org/2000/svg" xmlns:ev="http://www.w3.org/2001/xml-events" xmlns:xlink="http://www.w3.org/1999/xlink"><defs /><rect fill="#1a1a1a" height="200" width="200" x="0" y="0" /><text alignment-baseline="middle" fill="#e1ed5e" style="dominant-baseline: central; font-size:9.0px; font-family:Arial;" text-anchor="middle" x="100.0" y="100.0">2023</text><line stroke="#e1ed5e" stroke-width="0.3" x1="100.0" x2="100.0" y1="15.0" y2="10.0" /><path d="M 100.0 14.0 a86.0,86.0 0 0,1 42.46469731375804,11.215312516191453" fill="none" id="id73" stroke="none" /><text fill="#e1ed5e" style="font-size:6.75px; font-family:Arial;" text-anchor="middle"><textPath startOffset="22.20632615414155" xlink:href="#id73">January</textPath></text><path d="M 101.08401301168833 79.027996857942 l 2.2987250051446972 -44.4725916670848 a65.53196095206832,65.53196095206832 0 0,0 1.1260199297841376,0.06792459719162394 l -3.063906983768447 44.42643380051287" fill="#47ff2c" stroke="none" /><path d="M 102.16513564639614 79.11191278185805 l 6.4954069391883955 -62.66426165442583 a84.0,84.0 0 0,0 1.436933185961099,0.1614561861175967 l -7.57310682865922 62.54316951483763" fill="#4dd2ff" stroke="none" /><path d="M 103.2404852339499 79.25152402106235 l 8.162808628583306 -52.26557954235195 a73.8991705946775,73.8991705946775 0 0,0 1.2551274210324912,0.20710677881709383 l -9.061265255754673 52.11732650059523" fill="#3bff9d" stroke="none" /><path d="M 105.01212808612495 79.60689891045804 l 10.959757458505361 -44.59252395941052 a66.91959795795108,66.91959795795108 0 0,0 1.116254301782953,0.2845580759632848 l -11.72572064897334 44.39726288727837" fill="#33ff2f" stroke="none" /><path d="M 107.08798089147638 80.2323363322302 l 8.134454219132436 -22.686172209923598 a45.100451343936925,45.100451343936925 0 0,0 0.728517629118922,0.2683191910176824 l -8.523754174023933 22.54278975109959" fill="#ff5f08" stroke="none" /><path d="M 110.36928655335952 81.73862282372117 l 12.359675184600544 -21.766655705850724 a46.03095825744341,46.03095825744341 0 0,0 0.6856492452704941,0.3971722984571865 l -12.732521162336367 21.550679250003487" fill="#ff710a" stroke="none" /><line stroke="#e1ed5e" stroke-width="0.3" x1="143.23703022742887" x2="145.7803849466894" y1="26.81831364943548" y2="22.513508569990506" /><path d="M 143.74570117128098 25.957352633546492 a86.0,86.0 0 0,1 28.547481713284135,27.462654790039103" fill="none" id="id74" stroke="none" /><text fill="#e1ed5e" style="font-size:6.75px; font-family:Arial;" text-anchor="middle"><textPath startOffset="19.985693538727396" xlink:href="#id74">February</textPath></text><path d="M 112.48926042617603 83.11751280151076 l 16.38948449344187 -22.154655496689738 a48.55801085234158,48.55801085234158 0 0,0 0.6676815428312292,0.502883895570444 l -16.768412190031484 21.869255011613447" fill="#ffa10e" stroke="none" /><path d="M 115.19652480421416 85.50635884689758 l 40.153614245014616 -38.296392324247456 a76.48807441234666,76.48807441234666 0 0,0 0.9004929273469988,0.9605830698401391 l -40.80687449433208 37.599539837529264" fill="#40ffc4" stroke="none" /><line stroke="#e1ed5e" stroke-width="0.3" x1="172.23445277983987" x2="176.4835382374775" y1="55.19839476539836" y2="52.563006222186495" /><path d="M 173.08426987136738 54.67131705675599 a86.0,86.0 0 0,1 12.851231095245387,41.99856678651699" fill="none" id="id75" stroke="none" /><text fill="#e1ed5e" style="font-size:6.75px; font-family:Arial;" text-anchor="middle"><textPath startOffset="22.20632615414155" xlink:href="#id75">March</textPath></text><path d="M 119.04729006885535 91.15688171328212 l 27.52975172614999 -12.781285423714355 a51.35207550046473,51.35207550046473 0 0,0 0.36532767137584304,0.8049510978587477 l -27.745681714489177 12.305512317013543" fill="#ffd413" stroke="none" /><line stroke="#e1ed5e" stroke-width="0.3" x1="184.98032266829074" x2="189.97916517819016" y1="98.17113171792111" y2="98.06355123074" /><path d="M 185.9800911702706 98.14961562048488 a86.0,86.0 0 0,1 -9.607161424134198,41.387399972396054" fill="none" id="id76" stroke="none" /><text fill="#e1ed5e" style="font-size:6.75px; font-family:Arial;" text-anchor="middle"><textPath startOffset="21.466115282336823" xlink:href="#id76">April</textPath></text><path d="M 120.99513854157772 99.54816195383933 l 25.29275627653047 -0.5443274191962867 a46.298612855317984,46.298612855317984 0 0,0 0.01028929984073392,0.7969176118711049 l -25.29837858348892 0.10887354926471901" fill="#ff760a" stroke="none" /><line stroke="#e1ed5e" stroke-width="0.3" x1="174.80103733775053" x2="179.2010983576182" y1="140.37084112569926" y2="142.7455964860345" /><path d="M 175.68104954172406 140.8457921977663 a86.0,86.0 0 0,1 -30.038265399797805,32.042727171017184" fill="none" id="id77" stroke="none" /><text fill="#e1ed5e" style="font-size:6.75px; font-family:Arial;" text-anchor="middle"><textPath startOffset="22.206326154141568" xlink:href="#id77">May</textPath></text><line stroke="#e1ed5e" stroke-width="0.3" x1="143.8653032363475" x2="146.44561519142675" y1="172.8068346515853" y2="177.08958963109032" /><path d="M 144.38136562736335 173.6633856474863 a86.0,86.0 0 0,1 -40.68145358897372,12.25698825130547" fill="none" id="id78" stroke="none" /><text fill="#e1ed5e" style="font-size:6.75px; font-family:Arial;" text-anchor="middle"><textPath startOffset="21.466115282336833" xlink:href="#id78">June</textPath></text><path d="M 107.93186726928326 119.44442032107085 l 9.835200021431476 24.11030803542422 a47.039164983244135,47.039164983244135 0 0,0 -0.7523554342124363,0.2993777541197202 l -9.418723511177173 -24.27603263395001" fill="#ff840c" stroke="none" /><line stroke="#e1ed5e" stroke-width="0.3" x1="102.19456741930631" x2="102.32365962044197" y1="184.97166512339345" y2="189.96999836594603" /><path d="M 102.22038585953345 185.97133177190398 a86.0,86.0 0 0,1 -42.740103519485714,-10.115201625700543" fill="none" id="id79" stroke="none" /><text fill="#e1ed5e" style="font-size:6.75px; font-family:Arial;" text-anchor="middle"><textPath startOffset="22.20632615414155" xlink:href="#id79">July</textPath></text><path d="M 92.7421414339146 119.70592522655815 l -8.909552917319106 24.19046637408496 a46.77903792972586,46.77903792972586 0 0,0 -0.7532088461059312,-0.28479913607826807 l 9.32463198418532 -24.03351898790006" fill="#ff800b" stroke="none" /><line stroke="#e1ed5e" stroke-width="0.3" x1="58.666819895761336" x2="56.23545636021788" y1="174.27360380694188" y2="178.64263932499728" /><path d="M 58.180547188652646 175.14741091055294 a86.0,86.0 0 0,1 -31.652253787137756,-30.449443065178592" fill="none" id="id80" stroke="none" /><text fill="#e1ed5e" style="font-size:6.75px; font-family:Arial;" text-anchor="middle"><textPath startOffset="22.20632615414155" xlink:href="#id80">August</textPath></text><path d="M 83.28015986056508 112.70617746262583 l -29.902563028463018 22.724336432551944 a58.55740595369988,58.55740595369988 0 0,0 -0.6029704423357022,-0.8077774435300867 l 30.289294737493805 -22.20624610951255" fill="#b0ff20" stroke="none" /><line stroke="#e1ed5e" stroke-width="0.3" x1="26.63291911575756" x2="22.317208475507996" y1="142.92168965132927" y2="145.44649492493687" /><path d="M 25.769776987707644 143.4266507060508 a86.0,86.0 0 0,1 -11.730757126820373,-40.83630448921669" fill="none" id="id81" stroke="none" /><text fill="#e1ed5e" style="font-size:6.75px; font-family:Arial;" text-anchor="middle"><textPath startOffset="21.46611528233685" xlink:href="#id81">September</textPath></text><line stroke="#e1ed5e" stroke-width="0.3" x1="15.007084014347285" x2="10.007500721073583" y1="101.09737516637583" y2="101.16192664675087" /><path d="M 14.007167355692545 101.11028546245083 a86.0,86.0 0 0,1 10.666146001902534,-42.60595125391555" fill="none" id="id82" stroke="none" /><text fill="#e1ed5e" style="font-size:6.75px; font-family:Arial;" text-anchor="middle"><textPath startOffset="22.20632615414155" xlink:href="#id82">October</textPath></text><path d="M 79.71946130924805 94.55025226153421 l -27.45169703899746 -7.376767754376517 a49.42555844346617,49.42555844346617 0 0,0 0.2278594252130017,-0.8197315870507481 l 27.320650843218097 7.848210644846208" fill="#ffb110" stroke="none" /><path d="M 80.65960295795068 91.81776055985345 l -39.81992409450174 -16.84640458628092 a64.23687896202208,64.23687896202208 0 0,0 0.4395922036930394,-1.0146394143233242 l 39.524041180966016 17.529343145190843" fill="#59ff2a" stroke="none" /><line stroke="#e1ed5e" stroke-width="0.3" x1="26.266209847984243" x2="21.928928074336255" y1="57.711370442889674" y2="55.22380399835377" /><path d="M 25.398753493254645 57.213857153982495 a86.0,86.0 0 0,1 29.58750427330803,-30.492523968695096" fill="none" id="id83" stroke="none" /><text fill="#e1ed5e" style="font-size:6.75px; font-family:Arial;" text-anchor="middle"><textPath startOffset="21.46611528233685" xlink:href="#id83">November</textPath></text><path d="M 87.22198572758235 83.33499621200491 l -11.795034837504446 -15.383008349806362 a40.38452456750373,40.38452456750373 0 0,0 0.5552946094050236,-0.41823638733930113 l 11.528494074341031 15.583761326651517" fill="#ff0000" stroke="none" /><line stroke="#e1ed5e" stroke-width="0.3" x1="56.762969772571076" x2="54.21961505331055" y1="26.818313649435495" y2="22.513508569990535" /><path d="M 56.25429882871897 25.957352633546506 a86.0,86.0 0 0,1 42.265352541879196,-11.944610805530505" fill="none" id="id84" stroke="none" /><text fill="#e1ed5e" style="font-size:6.75px; font-family:Arial;" text-anchor="middle"><textPath startOffset="22.20632615414155" xlink:href="#id84">December</textPath></text><path d="M 96.40284397218896 79.31037775812273 l -7.488390407682148 -43.07068348906768 a64.71681332294605,64.71681332294605 0 0,0 1.099171294478891,-0.181372681652091 l 6.745889907064372 43.1932024336594" fill="#52ff2b" stroke="none" /></svg>