<?xml version="1.0" encoding="utf-8" ?>
<svg baseProfile="full" height="200mm" version="1.1" viewBox="0,0,200,200" width="200mm" xmlns="http://www.w3.org/2000/svg" xmlns:ev="http://www.w3.org/2001/xml-events" xmlns:xlink="http://www.w3.org/1999/xlink"><defs /><rect fill="#1a1a1a" height="200" width="200" x="0" y="0" /><text alignment-baseline="middle" fill="#e1ed5e" style="dominant-baseline: central; font-size:9.0px; font-family:Arial;" text-anchor="middle" x="100.0" y="100.0">2022</text><line stroke="#e1ed5e" stroke-width="0.3" x1="100.0" x2="100.0" y1="15.0" y2="10.0" /><path d="M 100.0 14.0 a86.0,86.0 0 0,1 42.46469731375804,11.215312516191453" fill="none" id="id61" stroke="none" /><text fill="#e1ed5e" style="font-size:6.75px; font-family:Arial;" text-anchor="middle"><textPath startOffset="22.20632615414155" xlink:href="#id61">January</textPath></text><line stroke="#e1ed5e" stroke-width="0.3" x1="143.23703022742887" x2="145.7803849466894" y1="26.81831364943548" y2="22.513508569990506" /><path d="M 143.74570117128098 25.957352633546492 a86.0,86.0 0 0,1 28.547481713284135,27.462654790039103" fill="none" id="id62" stroke="none" /><text fill="#e1ed5e" style="font-size:6.75px; font-family:Arial;" text-anchor="middle"><textPath startOffset="19.985693538727396" xlink:href="#id62">February</textPath></text><line stroke="#e1ed5e" stroke-width="0.3" x1="172.23445277983987" x2="176.4835382374775" y1="55.19839476539836" y2="52.563006222186495" /><path d="M 173.08426987136738 54.67131705675599 a86.0,86.0 0 0,1 12.851231095245387,41.99856678651699" fill="none" id="id63" stroke="none" /><text fill="#e1ed5e" style="font-size:6.75px; font-family:Arial;" text-anchor="middle"><textPath startOffset="22.20632615414155" xlink:href="#id63">March</textPath></text><line stroke="#e1ed5e" stroke-width="0.3" x1="184.98032266829074" x2="189.97916517819016" y1="98.17113171792111" y2="98.06355123074" /><path d="M 185.9800911702706 98.14961562048488 a86.0,86.0 0 0,1 -9.607161424134198,41.387399972396054" fill="none" id="id64" stroke="none" /><text fill="#e1ed5e" style="font-size:6.75px; font-family:Arial;" text-anchor="middle"><textPath startOffset="21.466115282336823" xlink:href="#id64">April</textPath></text><line stroke="#e1ed5e" stroke-width="0.3" x1="174.80103733775053" x2="179.2010983576182" y1="140.37084112569926" y2="142.7455964860345" /><path d="M 175.68104954172406 140.8457921977663 a86.0,86.0 0 0,1 -30.038265399797805,32.042727171017184" fill="none" id="id65" stroke="none" /><text fill="#e1ed5e" style="font-size:6.75px; font-family:Arial;" text-anchor="middle"><textPath startOffset="22.206326154141568" xlink:href="#id65">May</textPath></text><line stroke="#e1ed5e" stroke-width="0.3" x1="143.8653032363475" x2="146.44561519142675" y1="172.8068346515853" y2="177.08958963109032" /><path d="M 144.38136562736335 173.6633856474863 a86.0,86.0 0 0,1 -40.68145358897372,12.25698825130547" fill="none" id="id66" stroke="none" /><text fill="#e1ed5e" style="font-size:6.75px; font-family:Arial;" text-anchor="middle"><textPath startOffset="21.466115282336833" xlink:href="#id66">June</textPath></text><path d="M 103.06178313531738 120.77559828337769 l 2.0025953335792095 13.588524835314868 a34.73529742197242,34.73529742197242 0 0,0 -0.5922722325442914,0.0820835346337649 l -1.7683945098480878 -13.620982935441235" fill="#ff0000" stroke="none" /><line stroke="#e1ed5e" stroke-width="0.3" x1="102.19456741930631" x2="102.32365962044197" y1="184.97166512339345" y2="189.96999836594603" /><path d="M 102.22038585953345 185.97133177190398 a86.0,86.0 0 0,1 -42.740103519485714,-10.115201625700543" fill="none" id="id67" stroke="none" /><text fill="#e1ed5e" style="font-size:6.75px; font-family:Arial;" text-anchor="middle"><textPath startOffset="22.20632615414155" xlink:href="#id67">July</textPath></text><line stroke="#e1ed5e" stroke-width="0.3" x1="58.666819895761336" x2="56.23545636021788" y1="174.27360380694188" y2="178.64263932499728" /><path d="M 58.180547188652646 175.14741091055294 a86.0,86.0 0 0,1 -31.652253787137756,-30.449443065178592" fill="none" id="id68" stroke="none" /><text fill="#e1ed5e" style="font-size:6.75px; font-family:Arial;" text-anchor="middle"><textPath startOffset="22.20632615414155" xlink:href="#id68">August</textPath></text><path d="M 82.24976979558568 111.22182372390057 l -22.710609959102324 14.357811627700857 a47.86854219065522,47.86854219065522 0 0,0 -0.43431666356505466,-0.7002567511031389 l 22.954391262335335 -13.964758545232455" fill="#ffe015" stroke="none" /><line stroke="#e1ed5e" stroke-width="0.3" x1="26.63291911575756" x2="22.317208475507996" y1="142.92168965132927" y2="145.44649492493687" /><path d="M 25.769776987707644 143.4266507060508 a86.0,86.0 0 0,1 -11.730757126820373,-40.83630448921669" fill="none" id="id69" stroke="none" /><text fill="#e1ed5e" style="font-size:6.75px; font-family:Arial;" text-anchor="middle"><textPath startOffset="21.46611528233685" xlink:href="#id69">September</textPath></text><path d="M 81.69416730710424 110.29060199501025 l -25.749131258226612 14.474843397783282 a50.53876862605706,50.53876862605706 0 0,0 -0.4197692136026628,-0.7620030528990875 l 25.99447688128079 -14.029469826486372" fill="#f5ff19" stroke="none" /><path d="M 80.45479744820244 107.68017299344265 l -45.51728287030655 17.885750004840315 a69.90524606963089,69.90524606963089 0 0,0 -0.43043562872507807,-1.1237316013255432 l 45.81841277862514 -17.099594836681614" fill="#37ff77" stroke="none" /><path d="M 80.32549172779594 107.34259656027581 l -27.9222908269868 10.420698385174243 a50.80344409395673,50.80344409395673 0 0,0 -0.2987139429990988,-0.8219324785999221 l 28.097529030991122 -9.938518109568204" fill="#f1ff19" stroke="none" /><path d="M 79.86692584326677 105.97154293290107 l -29.45432458103451 8.736259670330965 a51.72262146289579,51.72262146289579 0 0,0 -0.24582373626427748,-0.8557446749804133 l 29.60034095418489 -8.227957519845955" fill="#e3ff1b" stroke="none" /><path d="M 79.4281124754447 104.21870165774334 l -30.794417899894697 6.315048227269331 a52.43526694504267,52.43526694504267 0 0,0 -0.17371071599073523,-0.8857471983943477 l 30.8985585488611 -5.784037301807029" fill="#d9ff1c" stroke="none" /><path d="M 79.35854240842038 103.8639653848113 l -29.509680040177532 5.524047014907384 a51.02226359714669,51.02226359714669 0 0,0 -0.15416876881650762,-0.8646603290177066 l 29.60039525133323 -5.015267935156464" fill="#eeff19" stroke="none" /><path d="M 79.29508885075956 103.50808413554451 l -31.594327020818092 5.353104710087258 a53.04461311883098,53.04461311883098 0 0,0 -0.1447821030740692,-0.9015582940475532 l 31.68179087825345 -4.808467186346491" fill="#d0ff1d" stroke="none" /><path d="M 79.23777060512086 103.15116336523772 l -48.3515208338423 7.338496180121762 a69.90524606963089,69.90524606963089 0 0,0 -0.1703222978128965,-1.1912337542067486 l 48.47067718267179 -6.505116953934613" fill="#37ff77" stroke="none" /><path d="M 79.1416061653843 102.43462659150553 l -43.63467296625706 5.0931119604710595 a64.93090568511077,64.93090568511077 0 0,0 -0.12002230095944125,-1.1112574441229106 l 43.71587756871755 -4.341258194463367" fill="#30ff2f" stroke="none" /><path d="M 79.10278846688536 102.07522291339032 l -33.19787143825323 3.296754850534872 a54.36116395714207,54.36116395714207 0 0,0 -0.08445499623570765,-0.9319538459397152 l 33.24970103076601 -2.7248196160465907" fill="#bdff1f" stroke="none" /><path d="M 79.04373962182676 101.35467743843564 l -48.803384309229436 3.1548015938891565 a69.90524606963089,69.90524606963089 0 0,0 -0.0672876245320132,-1.2014657372886082 l 48.85045828464899 -2.3142641402651103" fill="#37ff77" stroke="none" /><path d="M 79.0095281055655 100.63252640178507 l -42.67984666676345 1.2861135269676571 a63.699220127570115,63.699220127570115 0 0,0 -0.023592787674578654,-1.0962641371585833 l 42.69566151712304 -0.551259574018945" fill="#40ff2d" stroke="none" /><line stroke="#e1ed5e" stroke-width="0.3" x1="15.007084014347285" x2="10.007500721073583" y1="101.09737516637583" y2="101.16192664675087" /><path d="M 14.007167355692545 101.11028546245083 a86.0,86.0 0 0,1 10.666146001902534,-42.60595125391555" fill="none" id="id70" stroke="none" /><text fill="#e1ed5e" style="font-size:6.75px; font-family:Arial;" text-anchor="middle"><textPath startOffset="22.20632615414155" xlink:href="#id70">October</textPath></text><path d="M 79.01574976396665 99.18683210126434 l -32.99534260766355 -1.2786138706192138 a54.02010731701576,54.02010731701576 0 0,0 0.044004243763490915,-0.9288600367241671 l 32.96844475566656 1.84638501396639" fill="#c2ff1e" stroke="none" /><path d="M 79.16333360222342 97.38593545837743 l -50.94294634784093 -6.391048699991741 a72.3422758171535,72.3422758171535 0 0,0 0.16564314564525962,-1.234233834218355 l 50.825387203137836 7.267000876274755" fill="#3bff9a" stroke="none" /><path d="M 79.26566170972629 96.67025291283419 l -48.911347656790156 -7.854719794262668 a70.53803137640588,70.53803137640588 0 0,0 0.20284097175472626,-1.1971788974654807 l 48.768894823515204 8.695484480043977" fill="#38ff80" stroke="none" /><path d="M 80.65960295795068 91.81776055985345 l -55.199084837063644 -23.352784745413874 a80.9357282613216,80.9357282613216 0 0,0 0.5538674312762005,-1.2784023951327108 l 54.78892669594476 24.299486285133185" fill="#48f6ff" stroke="none" /><line stroke="#e1ed5e" stroke-width="0.3" x1="26.266209847984243" x2="21.928928074336255" y1="57.711370442889674" y2="55.22380399835377" /><path d="M 25.398753493254645 57.213857153982495 a86.0,86.0 0 0,1 29.58750427330803,-30.492523968695096" fill="none" id="id71" stroke="none" /><text fill="#e1ed5e" style="font-size:6.75px; font-family:Arial;" text-anchor="middle"><textPath startOffset="21.46611528233685" xlink:href="#id71">November</textPath></text><line stroke="#e1ed5e" stroke-width="0.3" x1="56.762969772571076" x2="54.21961505331055" y1="26.818313649435495" y2="22.513508569990535" /><path d="M 56.25429882871897 25.957352633546506 a86.0,86.0 0 0,1 42.265352541879196,-11.944610805530505" fill="none" id="id72" stroke="none" /><text fill="#e1ed5e" style="font-size:6.75px; font-family:Arial;" text-anchor="middle"><textPath startOffset="22.20632615414155" xlink:href="#id72">December</textPath></text><path d="M 91.56875222667455 80.76684994638697 l -25.293743319976343 -57.69945016083907 a84.0,84.0 0 0,0 1.329264968838767,-0.5691218881488553 l 24.29679459334727 58.12629157695071" fill="#4dd2ff" stroke="none" /><path d="M 93.25333710446033 80.11325718540243 l -13.062226196038191 -38.502758618404634 a61.658137862223825,61.658137862223825 0 0,0 1.0080141846022443,-0.33232642827313513 l 12.397529189193538 38.721898770937" fill="#59ff2a" stroke="none" /><path d="M 94.63758080256005 79.69619591428918 l -9.118077332679412 -34.52390590602585 a56.70769403437932,56.70769403437932 0 0,0 0.9459143411149411,-0.2411346272115669 l 8.522454102879472 34.67574352940628" fill="#9cff22" stroke="none" /><path d="M 97.47563105711357 79.15227682838746 l -4.333771009462956 -35.79082944632331 a57.05225434862937,57.05225434862937 0 0,0 0.9759556858028645,-0.10965999281596787 l 3.717048620150374 35.86012539260987" fill="#97ff23" stroke="none" /></svg>