<?xml version="1.0" encoding="utf-8" ?>
<svg baseProfile="full" height="200mm" version="1.1" viewBox="0,0,200,200" width="200mm" xmlns="http://www.w3.org/2000/svg" xmlns:ev="http://www.w3.org/2001/xml-events" xmlns:xlink="http://www.w3.org/1999/xlink"><defs /><rect fill="#1a1a1a" height="200" width="200" x="0" y="0" /><text alignment-baseline="middle" fill="#e1ed5e" style="dominant-baseline: central; font-size:9.0px; font-family:Arial;" text-anchor="middle" x="100.0" y="100.0">2024</text><line stroke="#e1ed5e" stroke-width="0.3" x1="100.0" x2="100.0" y1="15.0" y2="10.0" /><path d="M 100.0 14.0 a86.0,86.0 0 0,1 42.35913384403234,11.155469271406648" fill="none" id="id85" stroke="none" /><text fill="#e1ed5e" style="font-size:6.75px; font-family:Arial;" text-anchor="middle"><textPath startOffset="22.145653131862478" xlink:href="#id85">January</textPath></text><path d="M 101.08105385017728 79.02784411241856 l 1.0035760495914965 -19.469107254578113 a40.49495581368626,40.49495581368626 0 0,0 0.6939208837953038,0.0417445572115623 l -1.3376412855192625 19.449010719541857" fill="#ff4d07" stroke="none" /><path d="M 101.44090949804482 79.04949213459386 l 1.4141838165241598 -20.561922321576645 a41.610496486632016,41.610496486632016 0 0,0 0.7121953609567505,0.05512842517631321 l -1.7669481722561438 20.534616129405276" fill="#ff6108" stroke="none" /><path d="M 103.58742460773223 79.30868818359171 l 3.466904842862936 -19.99618583952341 a41.294503623351396,41.294503623351396 0 0,0 0.6974155300215668,0.12709234170357267 l -3.809655106435556 19.93372532388847" fill="#ff5b08" stroke="none" /><path d="M 105.3480935250658 79.69241777938227 l 4.620861901899543 -17.546165294816976 a39.14442838089606,39.14442838089606 0 0,0 0.648340963840739,0.17670821273899848 l -4.921384266674975 17.464256587933836" fill="#ff3404" stroke="none" /><path d="M 106.72888874123014 80.10723608172694 l 10.116884527327267 -29.908771452470027 a52.573500951515655,52.573500951515655 0 0,0 0.8524273151131818,0.2965184694311531 l -10.628817614485467 29.730694550470282" fill="#e7ff1a" stroke="none" /><path d="M 108.07796709384702 80.6158196554323 l 10.005869799206856 -24.01044500909452 a47.01189919966306,47.01189919966306 0 0,0 0.7422617535348384,0.31682740497186734 l -10.416566627912125 23.835142954463254" fill="#ffbe11" stroke="none" /><path d="M 110.02825361518725 81.54914285379988 l 14.960369821498567 -27.525395449987247 a52.328262956541074,52.328262956541074 0 0,0 0.7855613819402582,0.43573765636466855 l -15.430675391594926 27.264524878189434" fill="#eaff1a" stroke="none" /><line stroke="#e1ed5e" stroke-width="0.3" x1="143.13028292997686" x2="145.6673583964461" y1="26.7553504044142" y2="22.446841604673864" /><path d="M 143.63769802327073 25.89364864446614 a86.0,86.0 0 0,1 29.32050498858742,28.57503671076993" fill="none" id="id86" stroke="none" /><text fill="#e1ed5e" style="font-size:6.75px; font-family:Arial;" text-anchor="middle"><textPath startOffset="20.669276256404974" xlink:href="#id86">February</textPath></text><path d="M 110.96478420261332 82.08984904055464 l 8.02286065076674 -13.104739931642193 a36.36556219920374,36.36556219920374 0 0,0 0.5296139712973986,0.33051828816953527 l -8.246638750853851 12.965085846631112" fill="#ff0000" stroke="none" /><line stroke="#e1ed5e" stroke-width="0.3" x1="172.87174338648825" x2="177.1583165268699" y1="56.24261187166439" y2="53.66864786411523" /><path d="M 173.72905801456457 55.72781907015455 a86.0,86.0 0 0,1 12.242430191666344,42.057860355516425" fill="none" id="id87" stroke="none" /><text fill="#e1ed5e" style="font-size:6.75px; font-family:Arial;" text-anchor="middle"><textPath startOffset="22.145653131862474" xlink:href="#id87">March</textPath></text><path d="M 118.00360718960297 89.18935116829356 l 15.852800472023446 -9.519151195496338 a39.4912282525663,39.4912282525663 0 0,0 0.3439992317457357,0.5841859009196294 l -16.01387341389895 9.245614126283153" fill="#ff3a05" stroke="none" /><path d="M 118.18653347947321 89.5 l 27.11758108746426 -15.656342740619 a52.31268548123799,52.31268548123799 0 0,0 0.4423327394094548,0.7815595670320277 l -27.38234719189509 15.188526403487854" fill="#ebff1a" stroke="none" /><path d="M 119.31412917781788 91.75594674310238 l 18.286170722598985 -7.805278918552824 a40.88231421873323,40.88231421873323 0 0,0 0.2699676379846169,0.6478240528952868 l -18.417464205120087 7.49022235621626" fill="#ff5407" stroke="none" /><path d="M 119.58574465831526 92.42381321644754 l 34.26980016142521 -13.256294901595366 a57.74436769930982,57.74436769930982 0 0,0 0.34968151208993964,0.9275717554813862 l -34.492312357329595 12.666054865919822" fill="#9aff23" stroke="none" /><path d="M 119.71291397450082 92.76114493625339 l 29.4421287175906 -10.811557481075397 a52.36444991690067,52.36444991690067 0 0,0 0.3026162256027388,0.8464714416728563 l -29.62338511323728 10.304551083021625" fill="#eaff1a" stroke="none" /><path d="M 120.05942366710727 93.78553927170692 l 18.22078455086033 -5.644845630120726 a40.07514801611677,40.07514801611677 0 0,0 0.197940087077665,0.6588781733571877 l -18.31500095794162 5.331229853172815" fill="#ff4506" stroke="none" /><path d="M 120.16314734710363 94.1308016681162 l 18.199449547861 -5.29759452176264 a39.95480075237267,39.95480075237267 0 0,0 0.18604003173460112,0.660190441100345 l -18.287708071670185 4.984396156759282" fill="#ff4306" stroke="none" /><path d="M 120.35273937422433 94.82641323984039 l 18.326760003085717 -4.658590726546879 a39.90959015336321,39.90959015336321 0 0,0 0.1630828879419603,0.6654338349751551 l -18.404030417543968 4.343301066963629" fill="#ff4206" stroke="none" /><path d="M 120.43855184770803 95.1765574152323 l 22.503667377396688 -5.310804226756172 a44.12184436777134,44.12184436777134 0 0,0 0.1676401880281526,0.7386536001425787 l -22.591518426982507 4.923716292674567" fill="#ff8d0d" stroke="none" /><path d="M 120.592083275326 95.88100663000786 l 30.69225446606229 -6.139310479931065 a52.30024947789573,52.30024947789573 0 0,0 0.1685405617493996,0.8818754375352671 l -30.793121320093846 5.611532477362483" fill="#ebff1a" stroke="none" /><path d="M 120.65975698304385 96.23510406497455 l 18.730516176206788 -3.4133239936271393 a40.038986761711215,40.038986761711215 0 0,0 0.11741944319742853,0.6772441453599991 l -18.786350436896452 3.091286815346548" fill="#ff4406" stroke="none" /><path d="M 120.77682067341334 96.94652285012252 l 49.29630020244638 -7.244858518429984 a70.82582852900474,70.82582852900474 0 0,0 0.16645919082984043,1.2044157832915963 l -49.41340390983144 6.397554426938302" fill="#38ff7e" stroke="none" /><path d="M 120.86939407059847 97.66154086499901 l 18.763113105291765 -2.1024459595566953 a39.880537397405504,39.880537397405504 0 0,0 0.07039410037463172,0.6809990647445736 l -18.796439598148062 1.78004237252919" fill="#ff4206" stroke="none" /><path d="M 120.96210409425399 98.7389718711861 l 27.02231682754001 -1.6255954780126354 a48.07116856336437,48.07116856336437 0 0,0 0.04248211816672446,0.8241417432453789 l -27.046240535163307 1.161481941390526" fill="#ffd013" stroke="none" /><line stroke="#e1ed5e" stroke-width="0.3" x1="184.99686870605535" x2="189.99668451229388" y1="99.2704041080226" y2="99.22748670261217" /><path d="M 185.99683186730306 99.26182062694052 a86.0,86.0 0 0,1 -10.086455211305974,41.156179273409016" fill="none" id="id88" stroke="none" /><text fill="#e1ed5e" style="font-size:6.75px; font-family:Arial;" text-anchor="middle"><textPath startOffset="21.40746469413373" xlink:href="#id88">April</textPath></text><path d="M 120.98066250479742 100.90099992219065 l 16.472087404169123 0.7073823081649712 a37.48726942766727,37.48726942766727 0 0,0 -0.03312876839003435,0.6426892563450648 l -16.457517046322515 -0.9900433578867666" fill="#ff1502" stroke="none" /><path d="M 120.93736805541906 101.62068470465957 l 44.47823587364894 3.4428967566439734 a65.61128785978792,65.61128785978792 0 0,0 -0.09656224847055925,1.122199697800613 l -44.412580002480645 -4.2059175018202435" fill="#30ff2f" stroke="none" /><path d="M 120.86939407059847 102.33845913500097 l 43.37551666414577 4.860317114887381 a64.64697158267518,64.64697158267518 0 0,0 -0.13304320197304909,1.1017885665329603 l -43.28569137591306 -5.60419935834375" fill="#3cff2e" stroke="none" /><path d="M 120.592083275326 104.11899336999214 l 48.86917095723078 9.775202852401003 a70.83723969937176,70.83723969937176 0 0,0 -0.2487476292530896,1.190347453631448 l -48.694165617153324 -10.61266675731786" fill="#38ff7e" stroke="none" /><path d="M 120.51834098615036 104.47187691870673 l 30.85976928516855 6.725743084010011 a52.58418877169304,52.58418877169304 0 0,0 -0.19979271989440678,0.8803235880855587 l -30.73976570371648 -7.2545010060345865" fill="#e6ff1a" stroke="none" /><path d="M 120.35273937422433 105.17358676015961 l 24.394308203957277 6.200937752245756 a46.17009935929701,46.17009935929701 0 0,0 -0.201852418736869,0.7664665119855089 l -24.284266304415677 -6.618784768604068" fill="#ffb010" stroke="none" /><path d="M 120.16314734710363 105.8691983318838 l 60.48944204131091 17.60759499565139 a84.0,84.0 0 0,0 -0.41489471998548133,1.3810495856371061 l -60.1782710013218 -18.643382184879222" fill="#4dd2ff" stroke="none" /><path d="M 119.71291397450082 107.23885506374661 l 20.058672934612485 7.365822543160235 a42.36833408656564,42.36833408656564 0 0,0 -0.25656914636713707,0.6805801429871251 l -19.92927310443091 -7.7090709663415184" fill="#ff6e0a" stroke="none" /><path d="M 119.16976305983485 108.57439118712176 l 45.45806925740276 20.33281617553822 a70.79818745937501,70.79818745937501 0 0,0 -0.5057537132862,1.105163137543475 l -45.10233107926151 -21.110168295296383" fill="#38ff7e" stroke="none" /><line stroke="#e1ed5e" stroke-width="0.3" x1="174.33088141563837" x2="178.70328620479359" y1="141.23008692659167" y2="143.65538615756765" /><path d="M 175.20536237346943 141.71514677278685 a86.0,86.0 0 0,1 -30.301960400862466,31.631185727798858" fill="none" id="id89" stroke="none" /><text fill="#e1ed5e" style="font-size:6.75px; font-family:Arial;" text-anchor="middle"><textPath startOffset="22.145653131862474" xlink:href="#id89">May</textPath></text><line stroke="#e1ed5e" stroke-width="0.3" x1="143.1302829299769" x2="145.66735839644613" y1="173.24464959558577" y2="177.55315839532614" /><path d="M 143.63769802327073 174.10635135553383 a86.0,86.0 0 0,1 -40.68552437913181,11.842963189579606" fill="none" id="id90" stroke="none" /><text fill="#e1ed5e" style="font-size:6.75px; font-family:Arial;" text-anchor="middle"><textPath startOffset="21.407464694133747" xlink:href="#id90">June</textPath></text><line stroke="#e1ed5e" stroke-width="0.3" x1="101.45913802915013" x2="101.54496967792366" y1="184.9874750549273" y2="189.98673829345242" /><path d="M 101.47630435890484 185.9873277026323 a86.0,86.0 0 0,1 -42.54439059252881,-10.42667462771756" fill="none" id="id91" stroke="none" /><text fill="#e1ed5e" style="font-size:6.75px; font-family:Arial;" text-anchor="middle"><textPath startOffset="22.145653131862474" xlink:href="#id91">July</textPath></text><line stroke="#e1ed5e" stroke-width="0.3" x1="58.13341422392154" x2="55.67067388415222" y1="173.97424548756322" y2="178.32567169271397" /><path d="M 57.64086615596768 174.84453072859336 a86.0,86.0 0 0,1 -31.369924170532247,-30.572349798747897" fill="none" id="id92" stroke="none" /><text fill="#e1ed5e" style="font-size:6.75px; font-family:Arial;" text-anchor="middle"><textPath startOffset="22.145653131862474" xlink:href="#id92">August</textPath></text><line stroke="#e1ed5e" stroke-width="0.3" x1="26.387840678322732" x2="22.057713659400548" y1="142.50000000000003" y2="145.00000000000006" /><path d="M 25.521815274538298 143.00000000000003 a86.0,86.0 0 0,1 -11.493303480769221,-40.785679425670985" fill="none" id="id93" stroke="none" /><text fill="#e1ed5e" style="font-size:6.75px; font-family:Arial;" text-anchor="middle"><textPath startOffset="21.40746469413373" xlink:href="#id93">September</textPath></text><line stroke="#e1ed5e" stroke-width="0.3" x1="15.003131293944662" x2="10.003315487706104" y1="100.72959589197737" y2="100.7725132973878" /><path d="M 14.003168132696942 100.73817937305945 a86.0,86.0 0 0,1 10.791469493833604,-42.45332614584628" fill="none" id="id94" stroke="none" /><text fill="#e1ed5e" style="font-size:6.75px; font-family:Arial;" text-anchor="middle"><textPath startOffset="22.145653131862435" xlink:href="#id94">October</textPath></text><line stroke="#e1ed5e" stroke-width="0.3" x1="26.387840678322718" x2="22.05771365940052" y1="57.49999999999999" y2="54.99999999999999" /><path d="M 25.521815274538284 56.99999999999999 a86.0,86.0 0 0,1 29.574782752854787,-30.34633250058573" fill="none" id="id95" stroke="none" /><text fill="#e1ed5e" style="font-size:6.75px; font-family:Arial;" text-anchor="middle"><textPath startOffset="21.40746469413373" xlink:href="#id95">November</textPath></text><line stroke="#e1ed5e" stroke-width="0.3" x1="56.869717070023135" x2="54.33264160355391" y1="26.7553504044142" y2="22.446841604673864" /><path d="M 56.362301976729285 25.89364864446614 a86.0,86.0 0 0,1 42.16139366436587,-11.88097634709845" fill="none" id="id96" stroke="none" /><text fill="#e1ed5e" style="font-size:6.75px; font-family:Arial;" text-anchor="middle"><textPath startOffset="22.145653131862474" xlink:href="#id96">December</textPath></text></svg>