<?xml version="1.0" encoding="utf-8" ?>
<svg baseProfile="full" height="200mm" version="1.1" viewBox="0,0,200,200" width="200mm" xmlns="http://www.w3.org/2000/svg" xmlns:ev="http://www.w3.org/2001/xml-events" xmlns:xlink="http://www.w3.org/1999/xlink"><defs /><rect fill="#1a1a1a" height="200" width="200" x="0" y="0" /><text alignment-baseline="middle" fill="#e1ed5e" style="dominant-baseline: central; font-size:9.0px; font-family:Arial;" text-anchor="middle" x="100.0" y="100.0">2018</text><line stroke="#e1ed5e" stroke-width="0.3" x1="100.0" x2="100.0" y1="15.0" y2="10.0" /><path d="M 100.0 14.0 a86.0,86.0 0 0,1 42.46469731375804,11.215312516191453" fill="none" id="id13" stroke="none" /><text fill="#e1ed5e" style="font-size:6.75px; font-family:Arial;" text-anchor="middle"><textPath startOffset="22.20632615414155" xlink:href="#id13">January</textPath></text><path d="M 100.0 79.0 l 0.0 -19.81027195341089 a40.81027195341089,40.81027195341089 0 0,0 0.7024817459505329,0.00604648216879851 l -0.34100126667800457 19.80733684785065" fill="#ff2703" stroke="none" /><path d="M 101.44485096284872 79.0497635885617 l 1.6371853479426415 -23.73907134415809 a44.79545931783091,44.79545931783091 0 0,0 0.768796333817447,0.059673391883982074 l -2.0455718711224296 23.707372690085645" fill="#ff730a" stroke="none" /><path d="M 102.16513564639614 79.11191278185805 l 2.2588562458456933 -21.79225415045285 a42.90901121678762,42.90901121678762 0 0,0 0.7340164546926091,0.08247530120404413 l -2.6336394040480275 21.750142895778207" fill="#ff4f07" stroke="none" /><path d="M 102.52436894288641 79.15227682838746 l 3.0168495475695063 -24.914917605593356 a46.09690220896149,46.09690220896149 0 0,0 0.7869076430155633,0.10216319646399422 l -3.4452719190929155 24.859296085965223" fill="#ff8b0c" stroke="none" /><path d="M 102.88285421437855 79.19881850522331 l 3.4904900982594103 -25.185567025027726 a46.42629165840373,46.42629165840373 0 0,0 0.7906420009862628,0.11652007858807012 l -3.923501079674329 25.12175246227869" fill="#ff910d" stroke="none" /><path d="M 103.2404852339499 79.25152402106235 l 4.9487973582166624 -31.686613484866715 a53.0707354052262,53.0707354052262 0 0,0 0.901370539417892,0.1487338622447588 l -5.49349710377343 31.596733359682332" fill="#f9ff18" stroke="none" /><path d="M 104.307194497241 79.44645832069477 l 4.6790358777368555 -22.327935038371646 a43.8129362385225,43.8129362385225 0 0,0 0.7368027242300849,0.1610365374476295 l -5.062681326120468 22.244085002828147" fill="#ff6008" stroke="none" /><path d="M 104.66035177308747 79.52364482259891 l 3.963105268441167 -17.41283813609399 a38.85813918980797,38.85813918980797 0 0,0 0.6509225207470344,0.15405233019764897 l -4.262251476150725 17.342039893755473" fill="#ff0000" stroke="none" /><path d="M 105.01212808612495 79.60689891045804 l 10.652135922430702 -43.34088853136605 a65.63071384594062,65.63071384594062 0 0,0 1.0947550328328406,0.2790774336067094 l -11.396599843948568 43.151108101590474" fill="#3cff2e" stroke="none" /><path d="M 105.71112130821622 79.79150937346287 l 8.68033400833972 -30.7148874933517 a52.91790269152395,52.91790269152395 0 0,0 0.8744299948342188,0.2552700939413721 l -9.207754220897366 30.56091907049162" fill="#fcff18" stroke="none" /><path d="M 106.74666289553966 80.11325718540242 l 14.200173830131238 -41.85702016756993 a65.20017052132604,65.20017052132604 0 0,0 1.0597138827177062,0.36971336565267116 l -14.918569716912216 41.60638594874505" fill="#42ff2d" stroke="none" /><path d="M 107.4271985657038 80.35727306442388 l 11.243502422977107 -29.735713397222153 a52.790391598362376,52.790391598362376 0 0,0 0.8472024140432504,0.32870137456957427 l -11.753688002020025 29.53776931876203" fill="#feff18" stroke="none" /><line stroke="#e1ed5e" stroke-width="0.3" x1="143.23703022742887" x2="145.7803849466894" y1="26.81831364943548" y2="22.513508569990506" /><path d="M 143.74570117128098 25.957352633546492 a86.0,86.0 0 0,1 28.547481713284135,27.462654790039103" fill="none" id="id14" stroke="none" /><text fill="#e1ed5e" style="font-size:6.75px; font-family:Arial;" text-anchor="middle"><textPath startOffset="19.985693538727396" xlink:href="#id14">February</textPath></text><path d="M 112.19680574252982 82.90503203632743 l 11.181949936542932 -15.672552303595454 a40.252659558935946,40.252659558935946 0 0,0 0.5605751817727265,0.4072817097022189 l -11.450070434669447 15.47775135907656" fill="#ff1c02" stroke="none" /><path d="M 112.48926042617603 83.11751280151076 l 11.39182681643322 -15.399019944588163 a40.154726139243834,40.154726139243834 0 0,0 0.5521348389278788,0.41585651372483085 l -11.655207809119482 15.200646841357484" fill="#ff1a02" stroke="none" /><path d="M 114.42810811169701 84.74124197986012 l 21.83412323175765 -23.09114960853441 a52.779397847399466,52.779397847399466 0 0,0 0.6547579776806773,0.6298766557647457 l -22.228364453050744 22.71188986600736" fill="#feff18" stroke="none" /><path d="M 114.94478906791727 85.2469230424477 l 22.68650031891936 -22.395477352106642 a52.878436325344595,52.878436325344595 0 0,0 0.6338758144089945,0.653264746005611 l -23.068640397031466 22.001648410550917" fill="#fdff18" stroke="none" /><path d="M 115.19652480421416 85.50635884689758 l 25.12186091189568 -23.959901480514503 a55.71577126656692,55.71577126656692 0 0,0 0.6559409208911653,0.6997120402486006 l -25.53056915475731 23.52392002338785" fill="#ceff1d" stroke="none" /><line stroke="#e1ed5e" stroke-width="0.3" x1="172.23445277983987" x2="176.4835382374775" y1="55.19839476539836" y2="52.563006222186495" /><path d="M 173.08426987136738 54.67131705675599 a86.0,86.0 0 0,1 12.851231095245387,41.99856678651699" fill="none" id="id15" stroke="none" /><text fill="#e1ed5e" style="font-size:6.75px; font-family:Arial;" text-anchor="middle"><textPath startOffset="22.20632615414155" xlink:href="#id15">March</textPath></text><line stroke="#e1ed5e" stroke-width="0.3" x1="184.98032266829074" x2="189.97916517819016" y1="98.17113171792111" y2="98.06355123074" /><path d="M 185.9800911702706 98.14961562048488 a86.0,86.0 0 0,1 -9.607161424134198,41.387399972396054" fill="none" id="id16" stroke="none" /><text fill="#e1ed5e" style="font-size:6.75px; font-family:Arial;" text-anchor="middle"><textPath startOffset="21.466115282336823" xlink:href="#id16">April</textPath></text><path d="M 119.41010516605496 108.01547362559984 l 58.230315498164885 24.046420876799505 a84.0,84.0 0 0,0 -0.5633960752307643,1.331701897335346 l -57.80776844174181 -25.045197299801014" fill="#4dd2ff" stroke="none" /><line stroke="#e1ed5e" stroke-width="0.3" x1="174.80103733775053" x2="179.2010983576182" y1="140.37084112569926" y2="142.7455964860345" /><path d="M 175.68104954172406 140.8457921977663 a86.0,86.0 0 0,1 -30.038265399797805,32.042727171017184" fill="none" id="id17" stroke="none" /><text fill="#e1ed5e" style="font-size:6.75px; font-family:Arial;" text-anchor="middle"><textPath startOffset="22.206326154141568" xlink:href="#id17">May</textPath></text><line stroke="#e1ed5e" stroke-width="0.3" x1="143.8653032363475" x2="146.44561519142675" y1="172.8068346515853" y2="177.08958963109032" /><path d="M 144.38136562736335 173.6633856474863 a86.0,86.0 0 0,1 -40.68145358897372,12.25698825130547" fill="none" id="id18" stroke="none" /><text fill="#e1ed5e" style="font-size:6.75px; font-family:Arial;" text-anchor="middle"><textPath startOffset="21.466115282336833" xlink:href="#id18">June</textPath></text><line stroke="#e1ed5e" stroke-width="0.3" x1="102.19456741930631" x2="102.32365962044197" y1="184.97166512339345" y2="189.96999836594603" /><path d="M 102.22038585953345 185.97133177190398 a86.0,86.0 0 0,1 -42.740103519485714,-10.115201625700543" fill="none" id="id19" stroke="none" /><text fill="#e1ed5e" style="font-size:6.75px; font-family:Arial;" text-anchor="middle"><textPath startOffset="22.20632615414155" xlink:href="#id19">July</textPath></text><line stroke="#e1ed5e" stroke-width="0.3" x1="58.666819895761336" x2="56.23545636021788" y1="174.27360380694188" y2="178.64263932499728" /><path d="M 58.180547188652646 175.14741091055294 a86.0,86.0 0 0,1 -31.652253787137756,-30.449443065178592" fill="none" id="id20" stroke="none" /><text fill="#e1ed5e" style="font-size:6.75px; font-family:Arial;" text-anchor="middle"><textPath startOffset="22.20632615414155" xlink:href="#id20">August</textPath></text><line stroke="#e1ed5e" stroke-width="0.3" x1="26.63291911575756" x2="22.317208475507996" y1="142.92168965132927" y2="145.44649492493687" /><path d="M 25.769776987707644 143.4266507060508 a86.0,86.0 0 0,1 -11.730757126820373,-40.83630448921669" fill="none" id="id21" stroke="none" /><text fill="#e1ed5e" style="font-size:6.75px; font-family:Arial;" text-anchor="middle"><textPath startOffset="21.46611528233685" xlink:href="#id21">September</textPath></text><line stroke="#e1ed5e" stroke-width="0.3" x1="15.007084014347285" x2="10.007500721073583" y1="101.09737516637583" y2="101.16192664675087" /><path d="M 14.007167355692545 101.11028546245083 a86.0,86.0 0 0,1 10.666146001902534,-42.60595125391555" fill="none" id="id22" stroke="none" /><text fill="#e1ed5e" style="font-size:6.75px; font-family:Arial;" text-anchor="middle"><textPath startOffset="22.20632615414155" xlink:href="#id22">October</textPath></text><line stroke="#e1ed5e" stroke-width="0.3" x1="26.266209847984243" x2="21.928928074336255" y1="57.711370442889674" y2="55.22380399835377" /><path d="M 25.398753493254645 57.213857153982495 a86.0,86.0 0 0,1 29.58750427330803,-30.492523968695096" fill="none" id="id23" stroke="none" /><text fill="#e1ed5e" style="font-size:6.75px; font-family:Arial;" text-anchor="middle"><textPath startOffset="21.46611528233685" xlink:href="#id23">November</textPath></text><line stroke="#e1ed5e" stroke-width="0.3" x1="56.762969772571076" x2="54.21961505331055" y1="26.818313649435495" y2="22.513508569990535" /><path d="M 56.25429882871897 25.957352633546506 a86.0,86.0 0 0,1 42.265352541879196,-11.944610805530505" fill="none" id="id24" stroke="none" /><text fill="#e1ed5e" style="font-size:6.75px; font-family:Arial;" text-anchor="middle"><textPath startOffset="22.20632615414155" xlink:href="#id24">December</textPath></text></svg>